<svg xmlns="http://www.w3.org/2000/svg" id="Capa_1" data-name="Capa 1" viewBox="0 0 71 68">
  <defs>
    <style>
      .cls-1 {
        fill: #f0251f;
      }

      .cls-1, .cls-2 {
        stroke-width: 0px;
      }

      .cls-2 {
        fill: #F5B8B5;
      }
    </style>
  </defs>
  <g>
    <rect class="cls-2" x="4.93" y="7.9" width="24.21" height="28.25" rx="4" ry="4"/>
    <path class="cls-1" d="m25.14,36.5H8.94c-2.4,0-4.35-1.95-4.35-4.35V11.9c0-2.4,1.95-4.35,4.35-4.35h16.21c2.4,0,4.35,1.95,4.35,4.35v20.25c0,2.4-1.95,4.35-4.35,4.35ZM8.94,8.25c-2.01,0-3.65,1.64-3.65,3.65v20.25c0,2.01,1.64,3.65,3.65,3.65h16.21c2.01,0,3.65-1.64,3.65-3.65V11.9c0-2.01-1.64-3.65-3.65-3.65H8.94Z"/>
  </g>
  <g>
    <rect class="cls-2" x="18.6" y="5.05" width="28.39" height="33.65" rx="5" ry="5"/>
    <path class="cls-1" d="m41.98,39.04h-18.39c-2.95,0-5.35-2.4-5.35-5.35V10.05c0-2.95,2.4-5.35,5.35-5.35h18.39c2.95,0,5.35,2.4,5.35,5.35v23.65c0,2.95-2.4,5.35-5.35,5.35ZM23.6,5.4c-2.56,0-4.65,2.09-4.65,4.65v23.65c0,2.56,2.09,4.65,4.65,4.65h18.39c2.56,0,4.65-2.09,4.65-4.65V10.05c0-2.56-2.09-4.65-4.65-4.65h-18.39Z"/>
  </g>
  <g>
    <rect class="cls-2" x="46.98" y="5.91" width="12.16" height="31.92"/>
    <path class="cls-1" d="m59.5,38.18h-12.86V5.56h12.86v32.62Zm-12.16-.7h11.46V6.26h-11.46v31.22Z"/>
  </g>
  <g>
    <rect class="cls-2" x="24.82" y="33.96" width="26.4" height="10.34" rx="3" ry="3"/>
    <path class="cls-1" d="m48.22,44.66h-20.4c-1.85,0-3.35-1.5-3.35-3.35v-4.34c0-1.85,1.5-3.35,3.35-3.35h20.4c1.85,0,3.35,1.5,3.35,3.35v4.34c0,1.85-1.5,3.35-3.35,3.35Zm-20.4-10.34c-1.46,0-2.65,1.19-2.65,2.65v4.34c0,1.46,1.19,2.65,2.65,2.65h20.4c1.46,0,2.65-1.19,2.65-2.65v-4.34c0-1.46-1.19-2.65-2.65-2.65h-20.4Z"/>
  </g>
  <g>
    <rect class="cls-2" x="24.82" y=".51" width="26.4" height="10.34" rx="3" ry="3"/>
    <path class="cls-1" d="m48.22,11.21h-20.4c-1.85,0-3.35-1.5-3.35-3.35V3.51c0-1.85,1.5-3.35,3.35-3.35h20.4c1.85,0,3.35,1.5,3.35,3.35v4.34c0,1.85-1.5,3.35-3.35,3.35ZM27.82.86c-1.46,0-2.65,1.19-2.65,2.65v4.34c0,1.46,1.19,2.65,2.65,2.65h20.4c1.46,0,2.65-1.19,2.65-2.65V3.51c0-1.46-1.19-2.65-2.65-2.65h-20.4Z"/>
  </g>
  <g>
    <rect class="cls-2" x="54.55" y="3.29" width="11.51" height="37.15" rx="4" ry="4"/>
    <path class="cls-1" d="m62.06,40.8h-3.51c-2.4,0-4.35-1.95-4.35-4.35V7.29c0-2.4,1.95-4.35,4.35-4.35h3.51c2.4,0,4.35,1.95,4.35,4.35v29.16c0,2.4-1.95,4.35-4.35,4.35Zm-3.51-37.16c-2.01,0-3.65,1.64-3.65,3.65v29.16c0,2.01,1.64,3.65,3.65,3.65h3.51c2.01,0,3.65-1.64,3.65-3.65V7.29c0-2.01-1.64-3.65-3.65-3.65h-3.51Z"/>
  </g>
</svg>